<svg width="31" height="8" viewBox="0 0 31 8" fill="none" xmlns="http://www.w3.org/2000/svg">
<path d="M4.998 0C5.82867 0 6.49366 0.261331 6.993 0.784C7.49233 1.30667 7.742 2.01133 7.742 2.898V7.672H5.264V3.612C5.264 3.18266 5.14734 2.84433 4.914 2.597C4.68067 2.34967 4.368 2.226 3.976 2.226C3.56533 2.23534 3.227 2.37067 2.961 2.632C2.695 2.89333 2.53866 3.23866 2.492 3.668V7.672H0V0.0979996H2.492V1.33C2.76266 0.891333 3.11033 0.560002 3.535 0.336C3.95967 0.111999 4.44733 0 4.998 0ZM13.16 0.0139999C13.9813 0.0139999 14.7047 0.174998 15.33 0.497C15.9553 0.819001 16.4407 1.27166 16.786 1.855C17.1313 2.43834 17.304 3.11266 17.304 3.878C17.304 4.65267 17.1313 5.33166 16.786 5.915C16.4407 6.49834 15.9553 6.951 15.33 7.273C14.7047 7.595 13.9813 7.756 13.16 7.756C12.3387 7.756 11.6153 7.595 10.99 7.273C10.3647 6.951 9.88167 6.49834 9.541 5.915C9.20033 5.33166 9.03 4.65267 9.03 3.878C9.03 3.11266 9.20033 2.43834 9.541 1.855C9.88167 1.27166 10.3647 0.819001 10.99 0.497C11.6153 0.174998 12.3387 0.0139999 13.16 0.0139999ZM13.16 2.03C12.6747 2.03 12.2827 2.20267 11.984 2.548C11.6853 2.89334 11.536 3.346 11.536 3.906C11.536 4.47533 11.6853 4.93266 11.984 5.278C12.2827 5.62333 12.6747 5.796 13.16 5.796C13.6547 5.796 14.0513 5.62333 14.35 5.278C14.6487 4.93266 14.798 4.47533 14.798 3.906C14.798 3.346 14.6463 2.89334 14.343 2.548C14.0397 2.20267 13.6453 2.03 13.16 2.03ZM17.528 0.0979996H20.062L21.574 5.222L23.058 0.0979996H25.438L26.936 5.222L28.448 0.0979996H30.884L28.112 7.672H25.648L24.206 2.996L22.75 7.672H20.286L17.528 0.0979996Z" fill="#3DCF8E"/>
</svg>
